<svg width="20" height="20" viewBox="0 0 20 20" fill="none" xmlns="http://www.w3.org/2000/svg">
<path d="M16.5672 0C17.0794 4.31832e-05 17.5743 0.193273 17.9611 0.544172C18.3479 0.895072 18.6004 1.38006 18.6724 1.91L18.6905 2.08333L19.6208 17.6389C19.6559 18.2226 19.4695 18.7972 19.1019 19.2382C18.7342 19.6791 18.2151 19.9509 17.657 19.9944L17.4975 20H2.75148C2.19189 20 1.65485 19.7696 1.25678 19.3586C0.858715 18.9476 0.631715 18.3892 0.625 17.8044L0.62819 17.6389L1.55852 2.08333C1.59052 1.54897 1.80605 1.04464 2.16549 0.663096C2.52493 0.281554 3.0041 0.0484546 3.51488 0.00666671L3.68074 0H16.5672ZM16.5672 2.22222H3.68074L2.75041 17.7778H17.4975L16.5682 2.22222H16.5672ZM13.3137 4.44444C13.5957 4.44444 13.8661 4.56151 14.0655 4.76988C14.2649 4.97826 14.3769 5.26087 14.3769 5.55556C14.3769 6.7343 13.9288 7.86476 13.1313 8.69825C12.3337 9.53175 11.2519 10 10.124 10C8.99601 10 7.91426 9.53175 7.11667 8.69825C6.31909 7.86476 5.87101 6.7343 5.87101 5.55556C5.87101 5.26087 5.98303 4.97826 6.18243 4.76988C6.38182 4.56151 6.65226 4.44444 6.93425 4.44444C7.21624 4.44444 7.48668 4.56151 7.68607 4.76988C7.88547 4.97826 7.99749 5.26087 7.99749 5.55556C7.99502 6.1322 8.20715 6.68727 8.58905 7.1035C8.97096 7.51973 9.49274 7.76452 10.0442 7.78616C10.5956 7.80779 11.1334 7.60458 11.5441 7.21945C11.9548 6.83432 12.2062 6.29744 12.2451 5.72222L12.2504 5.55556C12.2504 5.26087 12.3625 4.97826 12.5619 4.76988C12.7613 4.56151 13.0317 4.44444 13.3137 4.44444Z" fill="#08090B"/>
</svg>
