<svg width="18" height="16" viewBox="0 0 18 16" fill="none" xmlns="http://www.w3.org/2000/svg">
<path d="M0.333374 1.49984C0.333374 1.21252 0.447511 0.93697 0.650675 0.733805C0.85384 0.530641 1.12939 0.416504 1.41671 0.416504H16.5834C16.8707 0.416504 17.1462 0.530641 17.3494 0.733805C17.5526 0.93697 17.6667 1.21252 17.6667 1.49984C17.6667 1.78716 17.5526 2.06271 17.3494 2.26587C17.1462 2.46903 16.8707 2.58317 16.5834 2.58317H1.41671C1.12939 2.58317 0.85384 2.46903 0.650675 2.26587C0.447511 2.06271 0.333374 1.78716 0.333374 1.49984ZM0.333374 14.4998C0.333374 14.2125 0.447511 13.937 0.650675 13.7338C0.85384 13.5306 1.12939 13.4165 1.41671 13.4165H16.5834C16.8707 13.4165 17.1462 13.5306 17.3494 13.7338C17.5526 13.937 17.6667 14.2125 17.6667 14.4998C17.6667 14.7872 17.5526 15.0627 17.3494 15.2659C17.1462 15.469 16.8707 15.5832 16.5834 15.5832H1.41671C1.12939 15.5832 0.85384 15.469 0.650675 15.2659C0.447511 15.0627 0.333374 14.7872 0.333374 14.4998ZM1.41671 6.9165C1.12939 6.9165 0.85384 7.03064 0.650675 7.23381C0.447511 7.43697 0.333374 7.71252 0.333374 7.99984C0.333374 8.28716 0.447511 8.56271 0.650675 8.76587C0.85384 8.96903 1.12939 9.08317 1.41671 9.08317H10.0834C10.3707 9.08317 10.6462 8.96903 10.8494 8.76587C11.0526 8.56271 11.1667 8.28716 11.1667 7.99984C11.1667 7.71252 11.0526 7.43697 10.8494 7.23381C10.6462 7.03064 10.3707 6.9165 10.0834 6.9165H1.41671Z" fill="black"/>
</svg>
