<svg width="16" height="16" viewBox="0 0 16 16" fill="none" xmlns="http://www.w3.org/2000/svg">
<path d="M14.825 1.18608C14.7248 1.08565 14.6057 1.00597 14.4747 0.951607C14.3436 0.897244 14.2031 0.869261 14.0612 0.869261C13.9194 0.869261 13.7789 0.897244 13.6478 0.951607C13.5168 1.00597 13.3977 1.08565 13.2975 1.18608L8 6.47274L2.7025 1.17524C2.6022 1.07494 2.48313 0.995385 2.35209 0.941105C2.22104 0.886824 2.08059 0.858887 1.93875 0.858887C1.79691 0.858887 1.65645 0.886824 1.52541 0.941105C1.39437 0.995385 1.2753 1.07494 1.175 1.17524C1.0747 1.27554 0.995141 1.39461 0.94086 1.52565C0.88658 1.6567 0.858643 1.79715 0.858643 1.93899C0.858643 2.08083 0.88658 2.22129 0.94086 2.35233C0.995141 2.48338 1.0747 2.60245 1.175 2.70274L6.4725 8.00024L1.175 13.2977C1.0747 13.398 0.995141 13.5171 0.94086 13.6482C0.88658 13.7792 0.858643 13.9197 0.858643 14.0615C0.858643 14.2033 0.88658 14.3438 0.94086 14.4748C0.995141 14.6059 1.0747 14.7249 1.175 14.8252C1.2753 14.9255 1.39437 15.0051 1.52541 15.0594C1.65645 15.1137 1.79691 15.1416 1.93875 15.1416C2.08059 15.1416 2.22104 15.1137 2.35209 15.0594C2.48313 15.0051 2.6022 14.9255 2.7025 14.8252L8 9.52774L13.2975 14.8252C13.3978 14.9255 13.5169 15.0051 13.6479 15.0594C13.779 15.1137 13.9194 15.1416 14.0612 15.1416C14.2031 15.1416 14.3435 15.1137 14.4746 15.0594C14.6056 15.0051 14.7247 14.9255 14.825 14.8252C14.9253 14.7249 15.0049 14.6059 15.0591 14.4748C15.1134 14.3438 15.1414 14.2033 15.1414 14.0615C15.1414 13.9197 15.1134 13.7792 15.0591 13.6482C15.0049 13.5171 14.9253 13.398 14.825 13.2977L9.5275 8.00024L14.825 2.70274C15.2367 2.29108 15.2367 1.59774 14.825 1.18608Z" fill="#08090B"/>
</svg>
