<svg width="21" height="20" viewBox="0 0 21 20" fill="none" xmlns="http://www.w3.org/2000/svg">
<path d="M10.625 0C9.31178 0 8.01142 0.258658 6.79817 0.761205C5.58491 1.26375 4.48252 2.00035 3.55393 2.92893C1.67857 4.8043 0.625 7.34784 0.625 10C0.625 12.6522 1.67857 15.1957 3.55393 17.0711C4.48252 17.9997 5.58491 18.7362 6.79817 19.2388C8.01142 19.7413 9.31178 20 10.625 20C13.2772 20 15.8207 18.9464 17.6961 17.0711C19.5714 15.1957 20.625 12.6522 20.625 10C20.625 8.68678 20.3663 7.38642 19.8638 6.17317C19.3612 4.95991 18.6247 3.85752 17.6961 2.92893C16.7675 2.00035 15.6651 1.26375 14.4518 0.761205C13.2386 0.258658 11.9382 0 10.625 0ZM5.695 16.28C6.125 15.38 8.745 14.5 10.625 14.5C12.505 14.5 15.125 15.38 15.555 16.28C14.1544 17.396 12.4159 18.0026 10.625 18C8.765 18 7.055 17.36 5.695 16.28ZM16.985 14.83C15.555 13.09 12.085 12.5 10.625 12.5C9.165 12.5 5.695 13.09 4.265 14.83C3.20118 13.4446 2.62467 11.7467 2.625 10C2.625 5.59 6.215 2 10.625 2C15.035 2 18.625 5.59 18.625 10C18.625 11.82 18.005 13.5 16.985 14.83ZM10.625 4C8.685 4 7.125 5.56 7.125 7.5C7.125 9.44 8.685 11 10.625 11C12.565 11 14.125 9.44 14.125 7.5C14.125 5.56 12.565 4 10.625 4ZM10.625 9C10.2272 9 9.84564 8.84196 9.56434 8.56066C9.28304 8.27936 9.125 7.89782 9.125 7.5C9.125 7.10218 9.28304 6.72064 9.56434 6.43934C9.84564 6.15804 10.2272 6 10.625 6C11.0228 6 11.4044 6.15804 11.6857 6.43934C11.967 6.72064 12.125 7.10218 12.125 7.5C12.125 7.89782 11.967 8.27936 11.6857 8.56066C11.4044 8.84196 11.0228 9 10.625 9Z" fill="#08090B"/>
</svg>
