<svg width="29" height="28" viewBox="0 0 29 28" fill="none" xmlns="http://www.w3.org/2000/svg">
<rect x="5.00067" y="3.77075" width="19.7972" height="17.9118" rx="8.95588" fill="#431F1D"/>
<path fill-rule="evenodd" clip-rule="evenodd" d="M14.766 27.6052C22.3888 27.6052 28.5685 21.4254 28.5685 13.8026C28.5685 6.17974 22.3888 0 14.766 0C7.14312 0 0.963379 6.17974 0.963379 13.8026C0.963379 21.4254 7.14312 27.6052 14.766 27.6052ZM22.1096 8.39497L19.5961 19.5267C19.5825 19.5873 19.5608 19.6452 19.5329 19.6991C19.5156 19.7327 19.4956 19.7647 19.4736 19.7946C19.3884 19.9101 19.2693 19.9996 19.1292 20.0475C18.8939 20.1288 18.6333 20.0822 18.4406 19.9244L15.1557 17.2369L13.7778 19.7174C13.6367 19.9713 13.3565 20.1151 13.0679 20.0822C12.7794 20.0489 12.5391 19.8452 12.4595 19.566L11.1436 14.9598L7.98182 14.3274C7.67097 14.2652 7.43733 14.0063 7.40771 13.6904C7.40604 13.6708 7.40471 13.6511 7.40471 13.6315C7.40438 13.6089 7.40505 13.5866 7.40704 13.5643C7.42868 13.2977 7.59841 13.0607 7.85302 12.9576L21.1347 7.57291C21.1441 7.56925 21.1537 7.56526 21.1634 7.56193C21.2715 7.52232 21.384 7.51067 21.4922 7.52332C21.5711 7.53264 21.6496 7.55494 21.7242 7.59122C21.7318 7.59488 21.7391 7.59887 21.7465 7.60287C21.845 7.65512 21.9322 7.73067 21.9984 7.82619C22.0327 7.87578 22.0606 7.92903 22.0819 7.98527C22.1072 8.05283 22.1215 8.12206 22.1259 8.19162C22.1302 8.25851 22.1249 8.32674 22.1096 8.39497ZM18.0632 11.1923L14.3895 15.682C14.3589 15.7193 14.3326 15.7592 14.311 15.8001L13.3641 17.5042L12.5521 14.6619L18.0632 11.1923Z" fill="#EBC6A8"/>
</svg>
