<svg width="29" height="28" viewBox="0 0 29 28" fill="none" xmlns="http://www.w3.org/2000/svg">
<rect x="3.01947" y="2.58789" width="21.5665" height="23.2918" rx="10.7833" fill="#431F1D"/>
<path d="M14.521 6.33325C10.4936 6.33325 7.21936 9.60784 7.21936 13.6349C7.21936 15.0451 7.62573 16.4076 8.37856 17.5904L8.55762 17.8654L7.85271 20.3988L10.5296 19.7654L10.7805 19.9208C11.9038 20.5901 13.2064 20.9486 14.521 20.9486C18.5481 20.9486 21.8227 17.6743 21.8227 13.6469C21.8227 9.61982 18.5481 6.33325 14.521 6.33325ZM18.6796 16.778C18.608 17.1365 17.8432 17.5904 17.3533 17.7219C16.1342 18.0447 14.4135 17.1125 12.7165 15.6308C11.0075 14.1488 9.86026 12.5716 10.0037 11.3165C10.0636 10.8146 10.4221 9.99024 10.7565 9.88274C11.0913 9.77524 11.3303 9.88274 11.6768 9.99024C11.8442 10.1813 12.0592 10.4086 12.2981 10.6832C12.621 11.0419 12.836 11.3644 12.9674 11.5914C13.0749 11.7828 13.039 12.0218 12.8719 12.1652L12.2862 12.691C12.1787 12.7866 12.1427 12.942 12.2026 13.0735C12.3817 13.4559 12.8 14.2446 13.4334 14.7941C14.0547 15.3439 14.9034 15.6548 15.3098 15.7743C15.4413 15.8219 15.5964 15.7623 15.6682 15.6428L16.1102 14.9975C16.2297 14.8181 16.469 14.7465 16.672 14.8301C16.911 14.9376 17.2694 15.105 17.6638 15.3679C17.9627 15.5709 18.2256 15.7503 18.4286 15.8937C18.608 16.2162 18.7515 16.4432 18.6796 16.778Z" fill="#EBC6A8"/>
<path d="M14.2339 0C6.60975 0 0.431335 6.17841 0.431335 13.8026C0.431335 21.4267 6.60975 27.6052 14.2339 27.6052C21.8581 27.6052 28.0365 21.4267 28.0365 13.8026C28.0245 6.17841 21.8461 0 14.2339 0ZM14.5208 22.3709C13.0388 22.3709 11.593 22.0005 10.3023 21.2833L5.82097 22.347L7.00413 18.0809C6.20338 16.7304 5.78503 15.2007 5.78503 13.6232C5.78503 8.80733 9.70461 4.88775 14.5208 4.88775C19.3367 4.88775 23.2562 8.81931 23.2562 13.6352C23.2562 18.4514 19.3367 22.3709 14.5208 22.3709Z" fill="#EBC6A8"/>
</svg>
