<svg width="29" height="28" viewBox="0 0 29 28" fill="none" xmlns="http://www.w3.org/2000/svg">
<mask id="mask0_150_2292" style="mask-type:luminance" maskUnits="userSpaceOnUse" x="0" y="0" width="29" height="28">
<path d="M0.830566 0H28.4357V27.6052H0.830566V0Z" fill="white"/>
</mask>
<g mask="url(#mask0_150_2292)">
<mask id="mask1_150_2292" style="mask-type:luminance" maskUnits="userSpaceOnUse" x="0" y="0" width="29" height="28">
<path d="M14.6331 0C7.01031 0 0.830566 6.17974 0.830566 13.8026C0.830566 21.4254 7.01031 27.6052 14.6331 27.6052C22.256 27.6052 28.4357 21.4254 28.4357 13.8026C28.4357 6.17974 22.256 0 14.6331 0Z" fill="white"/>
</mask>
<g mask="url(#mask1_150_2292)">
<path d="M0.830566 0H28.4357V27.6052H0.830566V0Z" fill="#EBC6A8"/>
</g>
</g>
<mask id="mask2_150_2292" style="mask-type:luminance" maskUnits="userSpaceOnUse" x="5" y="4" width="19" height="20">
<path d="M5.60156 4.91333H23.6945V23.7977H5.60156V4.91333Z" fill="white"/>
</mask>
<g mask="url(#mask2_150_2292)">
<path d="M14.4706 4.95386C13.0458 4.95386 9.52164 5.10362 7.64655 6.9045C6.29697 8.18018 5.77212 10.1315 5.69724 12.4575C5.54714 16.1342 6.37152 18.4599 7.72143 19.6604C8.0213 19.8857 8.7718 20.4867 10.1966 20.937V22.8128C10.1966 22.8128 10.1963 23.5626 10.6462 23.7127C10.7214 23.7127 10.797 23.7873 10.8719 23.7873C11.3218 23.7873 11.6959 23.2618 12.2208 22.7366C12.6707 22.2114 13.0462 21.8367 13.2711 21.4616H14.9216C16.3467 21.4616 19.8709 21.3118 21.7457 19.5109C23.0956 18.1604 23.6204 16.2087 23.6204 13.7326C23.6953 13.3571 23.695 12.9075 23.695 12.4575C23.6201 9.68119 22.7957 7.80543 21.6708 6.75506C21.2208 6.37998 19.2705 4.95386 15.071 4.95386H14.4706ZM14.3212 6.37998H14.9965C18.971 6.37998 20.4706 7.65566 20.6207 7.80576C21.5207 8.55627 22.0455 10.2067 22.1204 12.3827V12.6832C22.1956 13.1335 22.1953 13.5072 22.1953 13.7326C22.1204 15.9834 21.6701 17.4847 20.7702 18.4602C19.1953 19.886 15.8964 19.9609 14.9965 19.9609H13.5713L12.3719 21.3121L11.6217 22.1372L11.4709 22.3615C11.3208 22.5116 11.0965 22.8125 10.9468 22.8877V19.5109C9.44675 19.1358 8.84702 18.6103 8.69692 18.4602C7.64688 17.5596 7.04714 15.3837 7.19691 12.4575V11.707C7.34701 9.90617 7.79764 8.70603 8.54748 7.88065C10.1224 6.45486 13.4212 6.37998 14.3212 6.37998ZM14.2466 8.03008C13.8716 8.03008 13.8716 8.55627 14.2466 8.55627C17.0213 8.55627 19.4213 10.4314 19.4213 13.9582C19.4213 14.3333 19.9455 14.3333 19.9455 13.9582C19.9455 10.1315 17.3961 7.9552 14.2466 8.03008ZM11.2746 8.72467C11.1155 8.70603 10.9471 8.74264 10.7973 8.85514C10.0472 9.23022 9.29665 9.98172 9.52164 10.8071C9.52164 10.8071 9.67207 11.4817 10.4968 12.9075C10.9468 13.5828 11.3215 14.1835 11.6966 14.6338C12.0713 15.159 12.6711 15.7591 13.2711 16.2091C14.471 17.1845 16.3467 18.1604 17.1714 18.3853C17.9213 18.6107 18.746 17.8595 19.1211 17.109C19.2708 16.8088 19.1953 16.4344 18.8954 16.2091C18.4455 15.7591 17.6963 15.2342 17.1714 14.934C16.7963 14.709 16.346 14.8585 16.1959 15.0838L15.8209 15.5334C15.6711 15.7588 15.2967 15.7591 15.2967 15.7591C12.8218 15.0838 12.1462 12.5321 12.1462 12.5321C12.1462 12.5321 12.1469 12.2326 12.3719 12.0076L12.8215 11.6325C13.0465 11.4824 13.1956 11.0314 12.9706 10.6563C12.8208 10.4314 12.5969 9.98172 12.3719 9.7564C12.1469 9.4562 11.6966 8.93135 11.6966 8.93135C11.5841 8.81886 11.434 8.74364 11.2746 8.72467ZM14.7708 9.53075C14.3957 9.45587 14.3212 10.0569 14.6963 10.0569C16.796 10.207 17.9965 11.6325 17.9213 13.4334C17.8464 13.8088 18.4458 13.8088 18.4458 13.4334C18.5207 11.3326 17.1704 9.60597 14.7708 9.53075ZM14.9965 10.9569C14.6214 10.8817 14.6214 11.4814 14.9965 11.4814C15.8964 11.4814 16.3454 12.0069 16.3454 12.9075C16.4203 13.2826 16.9458 13.2826 16.9458 12.9075C16.8709 11.7067 16.1963 10.9569 14.9965 10.9569Z" fill="#431F1D"/>
</g>
</svg>
