<svg width="42" height="42" viewBox="0 0 42 42" fill="none" xmlns="http://www.w3.org/2000/svg">
<mask id="mask0_150_1647" style="mask-type:luminance" maskUnits="userSpaceOnUse" x="0" y="0" width="42" height="42">
<path d="M0.238281 0H41.5773V41.3391H0.238281V0Z" fill="white"/>
</mask>
<g mask="url(#mask0_150_1647)">
<mask id="mask1_150_1647" style="mask-type:luminance" maskUnits="userSpaceOnUse" x="0" y="0" width="42" height="42">
<path d="M20.9078 0C9.49252 0 0.238281 9.25424 0.238281 20.6695C0.238281 32.0848 9.49252 41.3391 20.9078 41.3391C32.3231 41.3391 41.5773 32.0848 41.5773 20.6695C41.5773 9.25424 32.3231 0 20.9078 0Z" fill="white"/>
</mask>
<g mask="url(#mask1_150_1647)">
<path d="M0.238281 0H41.5773V41.3391H0.238281V0Z" fill="#431F1D"/>
</g>
</g>
<path d="M27.3672 10.3347C28.4348 10.3347 29.3476 10.7137 30.1057 11.4718C30.8637 12.2299 31.2428 13.1427 31.2428 14.2103V27.1287C31.2428 28.1963 30.8637 29.1091 30.1057 29.8672C29.3476 30.6252 28.4348 31.0042 27.3672 31.0042H24.8374V22.9975H27.5153L27.919 19.8755H24.8374V17.8839C24.8374 17.3816 24.9428 17.0048 25.1536 16.7536C25.3644 16.5024 25.7749 16.3768 26.3849 16.3768L28.0266 16.3633V13.5778C27.4614 13.497 26.663 13.4567 25.6313 13.4567C24.4112 13.4567 23.4356 13.8155 22.7045 14.5332C21.9733 15.2509 21.6078 16.2646 21.6078 17.5744V19.8755H18.9164V22.9975H21.6078V31.0042H14.4488C13.3812 31.0042 12.4684 30.6252 11.7103 29.8672C10.9523 29.1091 10.5732 28.1963 10.5732 27.1287V14.2103C10.5732 13.1427 10.9523 12.2299 11.7103 11.4718C12.4684 10.7137 13.3812 10.3347 14.4488 10.3347H27.3672Z" fill="white"/>
</svg>
