<svg width="42" height="42" viewBox="0 0 42 42" fill="none" xmlns="http://www.w3.org/2000/svg">
<rect x="6.06152" y="5.64673" width="29.6466" height="26.8231" rx="13.4115" fill="white"/>
<path fill-rule="evenodd" clip-rule="evenodd" d="M20.6842 41.3391C32.0995 41.3391 41.3537 32.0848 41.3537 20.6695C41.3537 9.25424 32.0995 0 20.6842 0C9.26889 0 0.0146484 9.25424 0.0146484 20.6695C0.0146484 32.0848 9.26889 41.3391 20.6842 41.3391ZM31.6813 12.5716L27.9174 29.2415C27.897 29.3322 27.8646 29.4189 27.8227 29.4996C27.7968 29.55 27.7669 29.5978 27.734 29.6427C27.6064 29.8156 27.428 29.9497 27.2182 30.0215C26.8658 30.1431 26.4756 30.0733 26.187 29.837L21.2678 25.8125L19.2044 29.527C18.9931 29.9073 18.5735 30.1226 18.1414 30.0733C17.7092 30.0234 17.3494 29.7184 17.2303 29.3003L15.2596 22.4025L10.5248 21.4555C10.0593 21.3623 9.70947 20.9745 9.66511 20.5016C9.66262 20.4722 9.66063 20.4428 9.66063 20.4134C9.66013 20.3795 9.66113 20.3461 9.66412 20.3127C9.69651 19.9135 9.9507 19.5586 10.332 19.4041L30.2215 11.3405C30.2355 11.335 30.2499 11.3291 30.2644 11.3241C30.4263 11.2648 30.5948 11.2473 30.7568 11.2663C30.8749 11.2802 30.9925 11.3136 31.1042 11.3679C31.1156 11.3734 31.1266 11.3794 31.1376 11.3854C31.2851 11.4636 31.4157 11.5768 31.5148 11.7198C31.5662 11.7941 31.608 11.8738 31.6399 11.958C31.6778 12.0592 31.6993 12.1629 31.7057 12.2671C31.7122 12.3672 31.7042 12.4694 31.6813 12.5716ZM25.6218 16.7606L20.1205 23.484C20.0746 23.5398 20.0353 23.5996 20.0029 23.6609L18.5849 26.2127L17.3688 21.9564L25.6218 16.7606Z" fill="#431F1D"/>
</svg>
