<svg width="42" height="42" viewBox="0 0 42 42" fill="none" xmlns="http://www.w3.org/2000/svg">
<rect x="4.52148" y="3.87549" width="32.2961" height="34.8798" rx="16.1481" fill="white"/>
<path d="M21.7449 9.48438C15.7138 9.48438 10.8105 14.3881 10.8105 20.4187C10.8105 22.5304 11.4191 24.5709 12.5465 26.3422L12.8146 26.7538L11.759 30.5476L15.7676 29.5992L16.1434 29.8319C17.8255 30.8342 19.7762 31.371 21.7449 31.371C27.7755 31.371 32.6792 26.4678 32.6792 20.4367C32.6792 14.406 27.7755 9.48438 21.7449 9.48438ZM27.9724 25.1256C27.8652 25.6623 26.7199 26.3422 25.9862 26.539C24.1606 27.0225 21.5839 25.6265 19.0426 23.4076C16.4833 21.1882 14.7653 18.8263 14.9801 16.9469C15.0698 16.1953 15.6066 14.9608 16.1075 14.7998C16.6089 14.6388 16.9667 14.7998 17.4856 14.9608C17.7363 15.2468 18.0582 15.5872 18.4161 15.9984C18.8995 16.5357 19.2215 17.0186 19.4184 17.3586C19.5793 17.6451 19.5255 18.003 19.2753 18.2178L18.3981 19.0053C18.2372 19.1483 18.1833 19.381 18.273 19.5779C18.5412 20.1506 19.1677 21.3318 20.1161 22.1546C21.0466 22.978 22.3175 23.4435 22.9261 23.6224C23.123 23.6937 23.3552 23.6045 23.4629 23.4255L24.1247 22.4591C24.3037 22.1905 24.662 22.0834 24.966 22.2085C25.3239 22.3694 25.8606 22.6201 26.4512 23.0139C26.8988 23.3179 27.2925 23.5865 27.5966 23.8013C27.8652 24.2843 28.08 24.6242 27.9724 25.1256Z" fill="#431F1D"/>
<path d="M21.315 0C9.89775 0 0.645508 9.25225 0.645508 20.6695C0.645508 32.0868 9.89775 41.3391 21.315 41.3391C32.7323 41.3391 41.9846 32.0868 41.9846 20.6695C41.9666 9.25225 32.7144 0 21.315 0ZM21.7447 33.5008C19.5253 33.5008 17.3603 32.946 15.4275 31.872L8.71655 33.4649L10.4884 27.0764C9.28921 25.0539 8.66273 22.7633 8.66273 20.4009C8.66273 13.1891 14.5323 7.31946 21.7447 7.31946C28.9565 7.31946 34.8261 13.207 34.8261 20.4188C34.8261 27.6311 28.9565 33.5008 21.7447 33.5008Z" fill="#431F1D"/>
</svg>
