<svg id="Capa_1" data-name="Capa 1" xmlns="http://www.w3.org/2000/svg" viewBox="0 0 485.21 424.56"><path d="M333.59,272.93a91,91,0,1,1-91-91A91,91,0,0,1,333.59,272.93Zm151.62-121.3v242.6a60.65,60.65,0,0,1-60.65,60.65H60.65A60.64,60.64,0,0,1,0,394.24V151.63A60.65,60.65,0,0,1,60.65,91h91V60.65A30.32,30.32,0,0,1,182,30.33h121.3a30.31,30.31,0,0,1,30.33,30.32V91h91A60.65,60.65,0,0,1,485.21,151.63Zm-121.3,121.3a121.31,121.31,0,1,0-121.3,121.31A121.46,121.46,0,0,0,363.91,272.93Zm91-151.63h-91V182h91Z" transform="translate(0 -30.33)"/></svg>