<svg width="29" height="28" viewBox="0 0 29 28" fill="none" xmlns="http://www.w3.org/2000/svg">
<mask id="mask0_150_2270" style="mask-type:luminance" maskUnits="userSpaceOnUse" x="0" y="0" width="29" height="28">
<path d="M0.564392 0H28.1695V27.6052H0.564392V0Z" fill="white"/>
</mask>
<g mask="url(#mask0_150_2270)">
<mask id="mask1_150_2270" style="mask-type:luminance" maskUnits="userSpaceOnUse" x="0" y="0" width="29" height="28">
<path d="M14.367 0C6.74413 0 0.564392 6.17974 0.564392 13.8026C0.564392 21.4254 6.74413 27.6052 14.367 27.6052C21.9898 27.6052 28.1695 21.4254 28.1695 13.8026C28.1695 6.17974 21.9898 0 14.367 0Z" fill="white"/>
</mask>
<g mask="url(#mask1_150_2270)">
<path d="M0.564392 0H28.1695V27.6052H0.564392V0Z" fill="#EBC6A8"/>
</g>
</g>
<path d="M18.6802 6.90112C19.3931 6.90112 20.0026 7.15423 20.5088 7.66044C21.015 8.16666 21.2682 8.77621 21.2682 9.48911V18.1157C21.2682 18.8286 21.015 19.4382 20.5088 19.9444C20.0026 20.4506 19.3931 20.7037 18.6802 20.7037H16.9908V15.357H18.779L19.0486 13.2722H16.9908V11.9423C16.9908 11.6068 17.0612 11.3552 17.202 11.1875C17.3427 11.0197 17.6168 10.9359 18.0242 10.9359L19.1205 10.9269V9.06676C18.7431 9.01285 18.2099 8.98589 17.521 8.98589C16.7062 8.98589 16.0547 9.22551 15.5665 9.70477C15.0783 10.184 14.8341 10.861 14.8341 11.7356V13.2722H13.0369V15.357H14.8341V20.7037H10.0536C9.34067 20.7037 8.73111 20.4506 8.2249 19.9444C7.71868 19.4382 7.46558 18.8286 7.46558 18.1157V9.48911C7.46558 8.77621 7.71868 8.16666 8.2249 7.66044C8.73111 7.15423 9.34067 6.90112 10.0536 6.90112H18.6802Z" fill="#431F1D"/>
</svg>
