<svg width="19" height="18" viewBox="0 0 19 18" fill="none" xmlns="http://www.w3.org/2000/svg">
<path d="M4.165 2C4.225 2.89 4.375 3.76 4.615 4.59L3.415 5.79C3.005 4.59 2.745 3.32 2.655 2H4.165ZM14.025 14.02C14.875 14.26 15.745 14.41 16.625 14.47V15.96C15.305 15.87 14.035 15.61 12.825 15.21L14.025 14.02ZM5.125 0H1.625C1.075 0 0.625 0.45 0.625 1C0.625 10.39 8.235 18 17.625 18C18.175 18 18.625 17.55 18.625 17V13.51C18.625 12.96 18.175 12.51 17.625 12.51C16.385 12.51 15.175 12.31 14.055 11.94C13.9557 11.904 13.8506 11.887 13.745 11.89C13.485 11.89 13.235 11.99 13.035 12.18L10.835 14.38C8.00043 12.9304 5.69461 10.6246 4.245 7.79L6.445 5.59C6.725 5.31 6.805 4.92 6.695 4.57C6.31565 3.41806 6.12321 2.2128 6.125 1C6.125 0.45 5.675 0 5.125 0Z" fill="#08090B"/>
</svg>
