<svg width="19" height="19" viewBox="0 0 19 19" fill="none" xmlns="http://www.w3.org/2000/svg">
<path d="M12.9036 12.0521H12.0931L11.8058 11.7751C12.8461 10.5685 13.4178 9.02803 13.4167 7.4349C13.4167 6.11584 13.0255 4.82641 12.2927 3.72965C11.5599 2.63289 10.5183 1.77808 9.29962 1.2733C8.08097 0.768515 6.74 0.636441 5.44629 0.893776C4.15258 1.15111 2.96423 1.7863 2.03151 2.71901C1.0988 3.65173 0.463611 4.84008 0.206276 6.13379C-0.0510591 7.4275 0.0810147 8.76847 0.585796 9.98712C1.09058 11.2058 1.94539 12.2474 3.04215 12.9802C4.13891 13.713 5.42834 14.1042 6.7474 14.1042C8.39933 14.1042 9.91787 13.4988 11.0876 12.4933L11.3646 12.7806V13.5911L16.4948 18.7111L18.0236 17.1823L12.9036 12.0521ZM6.7474 12.0521C4.19255 12.0521 2.13021 9.98974 2.13021 7.4349C2.13021 4.88005 4.19255 2.81771 6.7474 2.81771C9.30224 2.81771 11.3646 4.88005 11.3646 7.4349C11.3646 9.98974 9.30224 12.0521 6.7474 12.0521Z" fill="#08090B"/>
</svg>
