<svg width="20" height="19" viewBox="0 0 20 19" fill="none" xmlns="http://www.w3.org/2000/svg">
<path fill-rule="evenodd" clip-rule="evenodd" d="M0 9.45946C0 4.23514 4.30495 0 9.61539 0C12.1655 0 14.6113 0.996619 16.4145 2.77061C18.2177 4.5446 19.2308 6.95065 19.2308 9.45946C19.2308 14.6838 14.9258 18.9189 9.61539 18.9189C4.30495 18.9189 0 14.6838 0 9.45946ZM8.39379 12.6283L13.7976 7.31208C13.9747 7.12938 13.9747 6.84209 13.7976 6.65938L13.288 6.15803C13.1011 5.97776 12.8019 5.97776 12.6149 6.15803L8.05725 10.6418L6.61494 9.23236C6.5277 9.1409 6.40589 9.08903 6.2784 9.08903C6.15092 9.08903 6.02911 9.1409 5.94186 9.23236L5.43225 9.73371C5.34123 9.82252 5.29004 9.94341 5.29004 10.0695C5.29004 10.1956 5.34123 10.3165 5.43225 10.4053L7.72071 12.6283C7.80795 12.7198 7.92976 12.7716 8.05725 12.7716C8.18474 12.7716 8.30654 12.7198 8.39379 12.6283Z" fill="#08090B"/>
</svg>
