<svg width="42" height="42" viewBox="0 0 42 42" fill="none" xmlns="http://www.w3.org/2000/svg">
<mask id="mask0_150_1669" style="mask-type:luminance" maskUnits="userSpaceOnUse" x="0" y="0" width="42" height="42">
<path d="M0.422852 0H41.7619V41.3391H0.422852V0Z" fill="white"/>
</mask>
<g mask="url(#mask0_150_1669)">
<mask id="mask1_150_1669" style="mask-type:luminance" maskUnits="userSpaceOnUse" x="0" y="0" width="42" height="42">
<path d="M21.0924 0C9.67709 0 0.422852 9.25424 0.422852 20.6695C0.422852 32.0848 9.67709 41.3391 21.0924 41.3391C32.5077 41.3391 41.7619 32.0848 41.7619 20.6695C41.7619 9.25424 32.5077 0 21.0924 0Z" fill="white"/>
</mask>
<g mask="url(#mask1_150_1669)">
<path d="M0.422852 0H41.7619V41.3391H0.422852V0Z" fill="#431F1D"/>
</g>
</g>
<mask id="mask2_150_1669" style="mask-type:luminance" maskUnits="userSpaceOnUse" x="7" y="7" width="28" height="29">
<path d="M7.56738 7.35767H34.6617V35.6372H7.56738V7.35767Z" fill="white"/>
</mask>
<g mask="url(#mask2_150_1669)">
<path d="M20.8491 7.41846C18.7155 7.41846 13.4379 7.64274 10.63 10.3396C8.60896 12.2499 7.82299 15.172 7.71085 18.6553C7.48608 24.1611 8.72061 27.6439 10.7421 29.4416C11.1912 29.779 12.315 30.6792 14.4487 31.3535V34.1625C14.4487 34.1625 14.4482 35.2853 15.122 35.5101C15.2347 35.5101 15.3478 35.6218 15.4599 35.6218C16.1338 35.6218 16.694 34.8348 17.4799 34.0483C18.1538 33.2618 18.716 32.7007 19.0529 32.139H21.5244C23.6586 32.139 28.9361 31.9147 31.7436 29.2179C33.7651 27.1954 34.551 24.2728 34.551 20.5647C34.6632 20.0025 34.6627 19.3292 34.6627 18.6553C34.5505 14.4977 33.316 11.6887 31.6314 10.1158C30.9576 9.55409 28.037 7.41846 21.7482 7.41846H20.8491ZM20.6253 9.55409H21.6366C27.5884 9.55409 29.8342 11.4644 30.059 11.6892C31.4067 12.8131 32.1926 15.2847 32.3048 18.5432V18.9932C32.4174 19.6676 32.4169 20.2273 32.4169 20.5647C32.3048 23.9353 31.6304 26.1836 30.2828 27.6444C27.9243 29.7795 22.9842 29.8917 21.6366 29.8917H19.5024L17.7062 31.9152L16.5828 33.1507L16.357 33.4866C16.1323 33.7114 15.7964 34.162 15.5721 34.2746V29.2179C13.3258 28.6562 12.4277 27.8692 12.2029 27.6444C10.6305 26.2957 9.73235 23.0372 9.95663 18.6553V17.5314C10.1814 14.8346 10.8562 13.0374 11.9791 11.8014C14.3375 9.66623 19.2777 9.55409 20.6253 9.55409ZM20.5137 12.0251C19.952 12.0251 19.952 12.8131 20.5137 12.8131C24.6688 12.8131 28.2628 15.6211 28.2628 20.9026C28.2628 21.4643 29.0477 21.4643 29.0477 20.9026C29.0477 15.172 25.23 11.913 20.5137 12.0251ZM16.063 13.0653C15.8248 13.0374 15.5726 13.0922 15.3483 13.2607C14.2249 13.8224 13.101 14.9477 13.4379 16.1838C13.4379 16.1838 13.6632 17.194 14.8982 19.3292C15.5721 20.3404 16.1333 21.24 16.695 21.9143C17.2562 22.7008 18.1543 23.5994 19.0529 24.2733C20.8496 25.7341 23.6586 27.1954 24.8936 27.5323C26.0165 27.8697 27.2515 26.7448 27.8132 25.6209C28.0375 25.1714 27.9243 24.6107 27.4753 24.2733C26.8015 23.5994 25.6796 22.8134 24.8936 22.3639C24.3319 22.027 23.6576 22.2508 23.4328 22.5882L22.8711 23.2615C22.6468 23.5989 22.0861 23.5994 22.0861 23.5994C18.38 22.5882 17.3683 18.767 17.3683 18.767C17.3683 18.767 17.3693 18.3184 17.7062 17.9815L18.3795 17.4198C18.7165 17.195 18.9397 16.5197 18.6028 15.958C18.3785 15.6211 18.0431 14.9477 17.7062 14.6103C17.3693 14.1608 16.695 13.3748 16.695 13.3748C16.5265 13.2063 16.3017 13.0937 16.063 13.0653ZM21.2987 14.2724C20.737 14.1603 20.6253 15.0604 21.187 15.0604C24.3314 15.2852 26.1291 17.4198 26.0165 20.1166C25.9043 20.6788 26.802 20.6788 26.802 20.1166C26.9141 16.9707 24.8921 14.3851 21.2987 14.2724ZM21.6366 16.408C21.0749 16.2954 21.0749 17.1935 21.6366 17.1935C22.9842 17.1935 23.6566 17.9805 23.6566 19.3292C23.7687 19.8908 24.5557 19.8908 24.5557 19.3292C24.4435 17.5309 23.4333 16.408 21.6366 16.408Z" fill="white"/>
</g>
</svg>
