<svg width="43" height="42" viewBox="0 0 43 42" fill="none" xmlns="http://www.w3.org/2000/svg">
<mask id="mask0_150_1658" style="mask-type:luminance" maskUnits="userSpaceOnUse" x="0" y="0" width="43" height="42">
<path d="M0.830078 0H42.1691V41.3391H0.830078V0Z" fill="white"/>
</mask>
<g mask="url(#mask0_150_1658)">
<mask id="mask1_150_1658" style="mask-type:luminance" maskUnits="userSpaceOnUse" x="0" y="0" width="43" height="42">
<path d="M21.4986 0C10.0833 0 0.829102 9.25424 0.829102 20.6695C0.829102 32.0848 10.0833 41.3391 21.4986 41.3391C32.9139 41.3391 42.1682 32.0848 42.1682 20.6695C42.1682 9.25424 32.9139 0 21.4986 0Z" fill="white"/>
</mask>
<g mask="url(#mask1_150_1658)">
<path d="M0.829102 0H42.1682V41.3391H0.829102V0Z" fill="#431F1D"/>
</g>
</g>
<path d="M33.8295 13.7634C34.4199 16.2094 34.4199 21.3154 34.4199 21.3154C34.4199 21.3154 34.4199 26.4214 33.8295 28.8674C33.5014 30.2194 32.5416 31.2831 31.3259 31.6427C29.1182 32.2961 21.5015 32.2961 21.5015 32.2961C21.5015 32.2961 13.8886 32.2961 11.677 31.6427C10.4562 31.2776 9.49763 30.2153 9.17338 28.8674C8.58301 26.4214 8.58301 21.3154 8.58301 21.3154C8.58301 21.3154 8.58301 16.2094 9.17338 13.7634C9.50151 12.4114 10.4614 11.3477 11.677 10.9881C13.8886 10.3347 21.5015 10.3347 21.5015 10.3347C21.5015 10.3347 29.1182 10.3347 31.3259 10.9881C32.5467 11.3532 33.5053 12.4156 33.8295 13.7634ZM18.9178 26.1195L26.6688 21.3154L18.9178 16.5114V26.1195Z" fill="white"/>
</svg>
