<svg width="29" height="28" viewBox="0 0 29 28" fill="none" xmlns="http://www.w3.org/2000/svg">
<mask id="mask0_150_2281" style="mask-type:luminance" maskUnits="userSpaceOnUse" x="0" y="0" width="29" height="28">
<path d="M0.697449 0H28.3026V27.6052H0.697449V0Z" fill="white"/>
</mask>
<g mask="url(#mask0_150_2281)">
<mask id="mask1_150_2281" style="mask-type:luminance" maskUnits="userSpaceOnUse" x="0" y="0" width="29" height="28">
<path d="M14.5 0C6.87719 0 0.697449 6.17974 0.697449 13.8026C0.697449 21.4254 6.87719 27.6052 14.5 27.6052C22.1229 27.6052 28.3026 21.4254 28.3026 13.8026C28.3026 6.17974 22.1229 0 14.5 0Z" fill="white"/>
</mask>
<g mask="url(#mask1_150_2281)">
<path d="M0.697449 0H28.3026V27.6052H0.697449V0Z" fill="#EBC6A8"/>
</g>
</g>
<path d="M22.7323 9.19073C23.1266 10.8241 23.1266 14.2337 23.1266 14.2337C23.1266 14.2337 23.1266 17.6434 22.7323 19.2768C22.5132 20.1796 21.8723 20.8899 21.0605 21.1301C19.5862 21.5664 14.5 21.5664 14.5 21.5664C14.5 21.5664 9.4163 21.5664 7.93943 21.1301C7.12421 20.8863 6.48412 20.1768 6.26759 19.2768C5.87335 17.6434 5.87335 14.2337 5.87335 14.2337C5.87335 14.2337 5.87335 10.8241 6.26759 9.19073C6.4867 8.2879 7.12766 7.57756 7.93943 7.33741C9.4163 6.90112 14.5 6.90112 14.5 6.90112C14.5 6.90112 19.5862 6.90112 21.0605 7.33741C21.8757 7.58122 22.5158 8.29065 22.7323 9.19073ZM12.7746 17.4418L17.9506 14.2337L12.7746 11.0257V17.4418Z" fill="#431F1D"/>
</svg>
